<?xml version="1.0" encoding="UTF-8"?>
<!DOCTYPE svg PUBLIC "-//W3C//DTD SVG 1.1//EN" "http://www.w3.org/Graphics/SVG/1.1/DTD/svg11.dtd">
<svg xmlns="http://www.w3.org/2000/svg" version="1.1" width="100px" height="82px" style="shape-rendering:geometricPrecision; text-rendering:geometricPrecision; image-rendering:optimizeQuality; fill-rule:evenodd; clip-rule:evenodd" xmlns:xlink="http://www.w3.org/1999/xlink">
<g><path style="opacity:1" fill="#000000" d="M -0.5,-0.5 C 32.8333,-0.5 66.1667,-0.5 99.5,-0.5C 99.5,26.8333 99.5,54.1667 99.5,81.5C 66.1667,81.5 32.8333,81.5 -0.5,81.5C -0.5,54.1667 -0.5,26.8333 -0.5,-0.5 Z"/></g>
<g><path style="opacity:1" fill="#eb06eb" d="M 69.5,2.5 C 54.4963,2.33342 39.4963,2.50008 24.5,3C 19.5723,4.92678 16.4056,8.42678 15,13.5C 14.5,33.1638 14.3334,52.8305 14.5,72.5C 12.5,72.5 10.5,72.5 8.5,72.5C 8.33338,52.4972 8.50005,32.4972 9,12.5C 10.4056,7.42678 13.5723,3.92678 18.5,2C 35.6717,1.17159 52.6717,1.33826 69.5,2.5 Z"/></g>
<g><path style="opacity:1" fill="#fdfefe" d="M 69.5,2.5 C 72.2788,2.27863 74.9455,2.61197 77.5,3.5C 80.8584,5.69966 83.3584,8.69966 85,12.5C 85.5,32.8306 85.6666,53.1639 85.5,73.5C 82.5,73.5 79.5,73.5 76.5,73.5C 74.5853,73.7845 72.9187,73.4511 71.5,72.5C 71.5,54.1667 71.5,35.8333 71.5,17.5C 67.03,16.5139 62.3633,16.1805 57.5,16.5C 57.5,35.5 57.5,54.5 57.5,73.5C 54.5,73.5 51.5,73.5 48.5,73.5C 46.2646,73.7947 44.2646,73.4614 42.5,72.5C 43.4968,54.3409 43.8302,36.0076 43.5,17.5C 38.6946,16.5128 33.6946,16.1795 28.5,16.5C 28.5,35.5 28.5,54.5 28.5,73.5C 25.5,73.5 22.5,73.5 19.5,73.5C 17.5853,73.7845 15.9187,73.4511 14.5,72.5C 14.3334,52.8305 14.5,33.1638 15,13.5C 16.4056,8.42678 19.5723,4.92678 24.5,3C 39.4963,2.50008 54.4963,2.33342 69.5,2.5 Z"/></g>
<g><path style="opacity:1" fill="#10f2f2" d="M 77.5,3.5 C 84.5459,4.04622 89.0459,7.71289 91,14.5C 91.5,34.4972 91.6666,54.4972 91.5,74.5C 86.3054,74.8205 81.3054,74.4872 76.5,73.5C 79.5,73.5 82.5,73.5 85.5,73.5C 85.6666,53.1639 85.5,32.8306 85,12.5C 83.3584,8.69966 80.8584,5.69966 77.5,3.5 Z"/></g>
<g><path style="opacity:1" fill="#1ff7f7" d="M 43.5,17.5 C 41.5,17.5 39.5,17.5 37.5,17.5C 36.5,17.5 35.5,17.5 34.5,17.5C 34.5,36.5 34.5,55.5 34.5,74.5C 29.3054,74.8205 24.3054,74.4872 19.5,73.5C 22.5,73.5 25.5,73.5 28.5,73.5C 28.5,54.5 28.5,35.5 28.5,16.5C 33.6946,16.1795 38.6946,16.5128 43.5,17.5 Z"/></g>
<g><path style="opacity:1" fill="#03fffe" d="M 71.5,17.5 C 69.5,17.5 67.5,17.5 65.5,17.5C 64.5,17.5 63.5,17.5 62.5,17.5C 62.5,36.5 62.5,55.5 62.5,74.5C 57.6367,74.8195 52.97,74.4861 48.5,73.5C 51.5,73.5 54.5,73.5 57.5,73.5C 57.5,54.5 57.5,35.5 57.5,16.5C 62.3633,16.1805 67.03,16.5139 71.5,17.5 Z"/></g>
<g><path style="opacity:1" fill="#fe32ff" d="M 37.5,17.5 C 39.5,17.5 41.5,17.5 43.5,17.5C 43.8302,36.0076 43.4968,54.3409 42.5,72.5C 40.8333,72.5 39.1667,72.5 37.5,72.5C 37.5,54.1667 37.5,35.8333 37.5,17.5 Z"/></g>
<g><path style="opacity:1" fill="#003f3f" d="M 65.5,17.5 C 65.5,17.8333 65.5,18.1667 65.5,18.5C 63.8373,36.9776 62.8373,55.6443 62.5,74.5C 62.5,55.5 62.5,36.5 62.5,17.5C 63.5,17.5 64.5,17.5 65.5,17.5 Z"/></g>
<g><path style="opacity:1" fill="#ee04ee" d="M 65.5,17.5 C 67.5,17.5 69.5,17.5 71.5,17.5C 71.5,35.8333 71.5,54.1667 71.5,72.5C 69.5,72.5 67.5,72.5 65.5,72.5C 65.5,54.5 65.5,36.5 65.5,18.5C 65.5,18.1667 65.5,17.8333 65.5,17.5 Z"/></g>
</svg>
